<?xml version="1.0" encoding="utf-8"?>
<svg xmlns="http://www.w3.org/2000/svg" style="margin: auto; background: none; display: block; shape-rendering: crispedges;" width="22" height="16" preserveAspectRatio="xMidYMid">
<style type="text/css">
  text {
    text-anchor: middle; font-size: 7px; opacity: 0;
  }
</style>
<g style="transform-origin: 11px 8px; transform: scale(0.0933333);">
<g transform="translate(11,8)">
  <g transform="translate(0,0)"><g class="path" style="transform: scale(1); transform-origin: -65.365px -27.5635px; animation: 1.35135s linear -0.802703s infinite normal forwards running beat-54367211-4373-4013-ae2b-d6f8f67eac4d;"><path d="M10.20-40.13L10.20-40.13L8.40-40.20L8.40-40.20Q6.38-40.20 5.77-39.23L5.77-39.23L5.77-39.23Q5.63-39 5.40-39L5.40-39L5.40-39Q4.42-39 4.42-42.34L4.42-42.34L4.42-42.34Q4.42-45.67 5.44-46.57L5.44-46.57L5.44-46.57Q6.45-47.48 9-47.48L9-47.48L9-47.48Q11.55-47.48 12.41-46.61L12.41-46.61L12.41-46.61Q13.28-45.75 13.28-43.73L13.28-43.73L13.28-43.73Q13.28-41.70 12.60-40.91L12.60-40.91L12.60-40.91Q11.92-40.13 10.20-40.13" fill="#0a0a0a" stroke="none" stroke-width="none" transform="translate(-74.21499633789062,15.676521411895747)" style="fill: rgb(10, 10, 10);"></path></g><g class="path" style="transform: scale(1); transform-origin: -70.13px 10.8015px; animation: 1.35135s linear -0.713514s infinite normal forwards running beat-54367211-4373-4013-ae2b-d6f8f67eac4d;"><path d="M13.42-33L13.42-33L13.42-33Q12.75-26.93 12.75-18.75L12.75-18.75L12.75-18.75Q12.45-7.72 12.45 0.22L12.45 0.22L12.53 6.15L12.53 6.15Q12.53 10.05 11.36 13.39L11.36 13.39L11.36 13.39Q10.20 16.72 8.59 18.82L8.59 18.82L8.59 18.82Q6.97 20.93 3.71 22.50L3.71 22.50L3.71 22.50Q0.45 24.07-3.90 24.07L-3.90 24.07L-3.90 24.07Q-5.25 24.07-5.25 23.10L-5.25 23.10L-5.25 23.10Q-5.25 22.57-4.05 22.05L-4.05 22.05L-4.05 22.05Q1.20 19.57 3.41 10.95L3.41 10.95L3.41 10.95Q5.63 2.32 5.63-10.05L5.63-10.05L5.63-10.05Q5.63-27.45 2.92-29.10L2.92-29.10L2.92-29.10Q2.17-29.63 2.17-30L2.17-30L2.17-30Q2.17-31.27 6.08-32.55L6.08-32.55L6.08-32.55Q9.97-33.82 11.70-33.82L11.70-33.82L11.70-33.82Q13.42-33.82 13.42-33" fill="#0a0a0a" stroke="none" stroke-width="none" transform="translate(-74.21499633789062,15.676521411895747)" style="fill: rgb(10, 10, 10);"></path></g><g class="path" style="transform: scale(1); transform-origin: -43.02px -0.78348px; animation: 1.35135s linear -0.624324s infinite normal forwards running beat-54367211-4373-4013-ae2b-d6f8f67eac4d;"><path d="M44.47-33.38L44.47-33.38L44.47-33.38Q43.13-25.27 43.13-12.75L43.13-12.75L43.13-12.75Q43.13-3.52 43.88-0.60L43.88-0.60L44.17 0.38L44.17 0.38Q44.17 1.35 42.52 1.35L42.52 1.35L42.52 1.35Q36.75 1.35 35.92-1.88L35.92-1.88L35.92-1.88Q35.85-2.25 35.59-2.25L35.59-2.25L35.59-2.25Q35.32-2.25 35.10-1.95L35.10-1.95L35.10-1.95Q32.77 1.13 27.90 1.13L27.90 1.13L27.90 1.13Q25.20 1.13 22.27-0.22L22.27-0.22L22.27-0.22Q20.47-1.05 19.35-3.11L19.35-3.11L19.35-3.11Q18.22-5.17 18.22-8.17L18.22-8.17L19.35-24.60L19.35-24.60Q19.35-29.77 18.30-31.95L18.30-31.95L18.30-31.95Q17.92-32.77 17.92-33L17.92-33L17.92-33Q17.92-33.45 18.30-33.60L18.30-33.60L18.30-33.60Q19.50-33.98 21.38-33.98L21.38-33.98L21.38-33.98Q28.65-33.98 28.65-27.97L28.65-27.97L28.65-27.97Q28.65-26.10 27.11-19.43L27.11-19.43L27.11-19.43Q25.57-12.75 25.57-9.94L25.57-9.94L25.57-9.94Q25.57-7.13 26.81-5.63L26.81-5.63L26.81-5.63Q28.05-4.13 30.26-4.13L30.26-4.13L30.26-4.13Q32.48-4.13 33.75-5.70L33.75-5.70L33.75-5.70Q35.02-7.27 35.25-8.85L35.25-8.85L35.48-10.42L35.48-10.42Q35.77-13.05 35.77-19.65L35.77-19.65L35.77-19.65Q35.77-26.25 35.36-28.01L35.36-28.01L35.36-28.01Q34.95-29.77 34.95-30.22L34.95-30.22L34.95-30.22Q34.95-32.10 37.95-33.19L37.95-33.19L37.95-33.19Q40.95-34.27 43.35-34.27L43.35-34.27L43.35-34.27Q44.47-34.27 44.47-33.38" fill="#0a0a0a" stroke="none" stroke-width="none" transform="translate(-74.21499633789062,15.676521411895747)" style="fill: rgb(10, 10, 10);"></path></g><g class="path" style="transform: scale(1); transform-origin: -18.865px -5.28848px; animation: 1.35135s linear -0.535135s infinite normal forwards running beat-54367211-4373-4013-ae2b-d6f8f67eac4d;"><path d="M46.95-29.25L46.95-29.25L47.17-32.25L47.17-32.25Q47.25-32.92 48.22-32.92L48.22-32.92L50.85-32.92L50.55-38.92L50.55-39.23L50.55-39.23Q50.55-40.95 53.17-42.52L53.17-42.52L53.17-42.52Q55.80-44.10 57.97-44.10L57.97-44.10L57.97-44.10Q58.65-44.10 58.65-43.50L58.65-43.50L58.65-43.42L58.65-43.42Q58.35-41.40 58.05-33L58.05-33L58.05-33Q61.35-33 62.25-33.15L62.25-33.15L62.25-33.15Q63.15-33.30 63.22-33.30L63.22-33.30L63.22-33.30Q63.75-33.30 63.75-32.40L63.75-32.40L63.75-32.40Q63.75-31.50 62.92-30.11L62.92-30.11L62.92-30.11Q62.10-28.72 61.12-28.65L61.12-28.65L57.97-28.65L57.97-28.65Q57.90-26.10 57.90-20.06L57.90-20.06L57.90-20.06Q57.90-14.03 58.01-10.13L58.01-10.13L58.01-10.13Q58.12-6.22 58.27-4.24L58.27-4.24L58.27-4.24Q58.42-2.25 58.61-1.05L58.61-1.05L58.61-1.05Q58.80 0.15 58.91 0.67L58.91 0.67L58.91 0.67Q59.02 1.20 59.02 1.35L59.02 1.35L59.02 1.35Q59.02 2.10 58.05 2.17L58.05 2.17L58.05 2.17Q55.12 2.17 52.24 1.35L52.24 1.35L52.24 1.35Q49.35 0.53 49.35-1.50L49.35-1.50L49.35-1.50Q50.92-14.10 50.92-28.57L50.92-28.57L50.92-28.57Q48.90-28.57 47.85-28.43L47.85-28.43L47.77-28.43L47.77-28.43Q47.10-28.43 46.95-29.25" fill="#0a0a0a" stroke="none" stroke-width="none" transform="translate(-74.21499633789062,15.676521411895747)" style="fill: rgb(10, 10, 10);"></path></g><g class="path" style="transform: scale(1); transform-origin: -2.965px -27.5635px; animation: 1.35135s linear -0.445946s infinite normal forwards running beat-54367211-4373-4013-ae2b-d6f8f67eac4d;"><path d="M72.60-40.13L72.60-40.13L70.80-40.20L70.80-40.20Q68.78-40.20 68.17-39.23L68.17-39.23L68.17-39.23Q68.03-39 67.80-39L67.80-39L67.80-39Q66.83-39 66.83-42.34L66.83-42.34L66.83-42.34Q66.83-45.67 67.84-46.57L67.84-46.57L67.84-46.57Q68.85-47.48 71.36-47.48L71.36-47.48L71.36-47.48Q73.88-47.48 74.78-46.61L74.78-46.61L74.78-46.61Q75.67-45.75 75.67-43.73L75.67-43.73L75.67-43.73Q75.67-41.70 75-40.91L75-40.91L75-40.91Q74.33-40.13 72.60-40.13" fill="#0a0a0a" stroke="none" stroke-width="none" transform="translate(-74.21499633789062,15.676521411895747)" style="fill: rgb(10, 10, 10);"></path></g><g class="path" style="transform: scale(1); transform-origin: -3.93999px -0.408478px; animation: 1.35135s linear -0.356757s infinite normal forwards running beat-54367211-4373-4013-ae2b-d6f8f67eac4d;"><path d="M66.60-2.25L66.60-2.25L67.42-19.72L67.42-19.72Q67.42-25.95 66-28.20L66-28.20L66-28.20Q65.55-28.95 64.95-29.32L64.95-29.32L64.95-29.32Q64.50-29.47 64.50-29.92L64.50-29.92L64.50-29.92Q64.50-31.27 68.33-32.55L68.33-32.55L68.33-32.55Q72.15-33.82 73.91-33.82L73.91-33.82L73.91-33.82Q75.67-33.82 75.75-32.92L75.75-32.92L75.75-32.92Q75.75-31.42 75.34-24.41L75.34-24.41L75.34-24.41Q74.92-17.40 74.92-9.67L74.92-9.67L74.92-9.67Q74.92-1.95 75.83-0.07L75.83-0.07L75.83-0.07Q76.05 0.30 76.05 0.67L76.05 0.67L76.05 0.67Q76.05 1.65 73.20 1.65L73.20 1.65L73.20 1.65Q70.35 1.65 67.35 0.15L67.35 0.15L67.35 0.15Q66.60-0.22 66.60-2.25" fill="#0a0a0a" stroke="none" stroke-width="none" transform="translate(-74.21499633789062,15.676521411895747)" style="fill: rgb(10, 10, 10);"></path></g><g class="path" style="transform: scale(1); transform-origin: 19.31px 10.0515px; animation: 1.35135s linear -0.267568s infinite normal forwards running beat-54367211-4373-4013-ae2b-d6f8f67eac4d;"><path d="M81.38-11.47L81.38-11.47L81.38-11.47Q81.53-19.05 81.53-23.93L81.53-23.93L81.53-23.93Q81.53-28.80 80.85-33.23L80.85-33.23L80.85-33.23Q80.85-33.98 82.35-33.98L82.35-33.98L82.35-33.98Q83.85-33.98 84.94-33.60L84.94-33.60L84.94-33.60Q86.03-33.23 86.47-32.77L86.47-32.77L86.47-32.77Q87.67-31.57 87.86-31.57L87.86-31.57L87.86-31.57Q88.05-31.57 89.03-32.25L89.03-32.25L89.03-32.25Q91.95-34.13 95.51-34.13L95.51-34.13L95.51-34.13Q99.08-34.13 101.74-32.32L101.74-32.32L101.74-32.32Q104.40-30.52 105.53-27.60L105.53-27.60L105.53-27.60Q107.55-22.57 107.55-16.95L107.55-16.95L107.55-16.95Q107.55-11.40 105.53-5.85L105.53-5.85L105.53-5.85Q104.40-2.85 102.22-0.94L102.22-0.94L102.22-0.94Q100.05 0.97 97.13 0.97L97.13 0.97L97.13 0.97Q91.35 0.97 91.35-5.70L91.35-5.70L91.35-5.70Q91.35-7.50 92.10-7.50L92.10-7.50L92.10-7.50Q92.25-7.50 92.96-7.16L92.96-7.16L92.96-7.16Q93.67-6.83 94.35-6.83L94.35-6.83L94.35-6.83Q99.67-6.83 99.67-18.11L99.67-18.11L99.67-18.11Q99.67-29.40 93.97-29.40L93.97-29.40L93.97-29.40Q92.40-29.40 91.31-28.69L91.31-28.69L91.31-28.69Q90.22-27.97 89.92-27.30L89.92-27.30L89.63-26.55L89.63-26.55Q88.58-19.80 88.58-0.53L88.58-0.53L88.58-0.53Q88.58 8.17 88.91 11.96L88.91 11.96L88.91 11.96Q89.25 15.75 89.25 16.50L89.25 16.50L89.25 16.50Q89.25 17.25 88.80 17.85L88.80 17.85L88.80 17.85Q87.30 19.80 84.75 21.34L84.75 21.34L84.75 21.34Q82.20 22.88 80.25 22.88L80.25 22.88L80.25 22.88Q79.50 22.88 79.50 21.90L79.50 21.90L79.50 21.90Q80.70 14.32 81.38-11.47" fill="#0a0a0a" stroke="none" stroke-width="none" transform="translate(-74.21499633789062,15.676521411895747)" style="fill: rgb(10, 10, 10);"></path></g><g class="path" style="transform: scale(1); transform-origin: 41.88px -27.5635px; animation: 1.35135s linear -0.178378s infinite normal forwards running beat-54367211-4373-4013-ae2b-d6f8f67eac4d;"><path d="M117.45-40.13L117.45-40.13L115.65-40.20L115.65-40.20Q113.63-40.20 113.02-39.23L113.02-39.23L113.02-39.23Q112.88-39 112.65-39L112.65-39L112.65-39Q111.67-39 111.67-42.34L111.67-42.34L111.67-42.34Q111.67-45.67 112.69-46.57L112.69-46.57L112.69-46.57Q113.70-47.48 116.21-47.48L116.21-47.48L116.21-47.48Q118.72-47.48 119.63-46.61L119.63-46.61L119.63-46.61Q120.52-45.75 120.52-43.73L120.52-43.73L120.52-43.73Q120.52-41.70 119.85-40.91L119.85-40.91L119.85-40.91Q119.17-40.13 117.45-40.13" fill="#0a0a0a" stroke="none" stroke-width="none" transform="translate(-74.21499633789062,15.676521411895747)" style="fill: rgb(10, 10, 10);"></path></g><g class="path" style="transform: scale(1); transform-origin: 40.91px -0.408478px; animation: 1.35135s linear -0.0891892s infinite normal forwards running beat-54367211-4373-4013-ae2b-d6f8f67eac4d;"><path d="M111.45-2.25L111.45-2.25L112.27-19.72L112.27-19.72Q112.27-25.95 110.85-28.20L110.85-28.20L110.85-28.20Q110.40-28.95 109.80-29.32L109.80-29.32L109.80-29.32Q109.35-29.47 109.35-29.92L109.35-29.92L109.35-29.92Q109.35-31.27 113.17-32.55L113.17-32.55L113.17-32.55Q117-33.82 118.76-33.82L118.76-33.82L118.76-33.82Q120.52-33.82 120.60-32.92L120.60-32.92L120.60-32.92Q120.60-31.42 120.19-24.41L120.19-24.41L120.19-24.41Q119.77-17.40 119.77-9.67L119.77-9.67L119.77-9.67Q119.77-1.95 120.67-0.07L120.67-0.07L120.67-0.07Q120.90 0.30 120.90 0.67L120.90 0.67L120.90 0.67Q120.90 1.65 118.05 1.65L118.05 1.65L118.05 1.65Q115.20 1.65 112.20 0.15L112.20 0.15L112.20 0.15Q111.45-0.22 111.45-2.25" fill="#0a0a0a" stroke="none" stroke-width="none" transform="translate(-74.21499633789062,15.676521411895747)" style="fill: rgb(10, 10, 10);"></path></g><g class="path" style="transform: scale(1); transform-origin: 64.235px -0.788479px; animation: 1.35135s linear 0s infinite normal forwards running beat-54367211-4373-4013-ae2b-d6f8f67eac4d;"><path d="M150.53-22.50L150.53-22.50L150.38-12.90L150.38-12.90Q150.38-2.92 152.55-0.90L152.55-0.90L152.55-0.90Q152.85-0.60 152.85-0.22L152.85-0.22L152.85-0.22Q152.85 0.90 148.01 0.90L148.01 0.90L148.01 0.90Q143.17 0.90 142.88-1.95L142.88-1.95L142.88-1.95Q142.80-2.63 142.80-4.72L142.80-4.72L143.10-16.72L143.10-16.72Q143.10-17.25 142.50-17.25L142.50-17.25L142.50-17.25Q138.90-17.25 135.75-15.22L135.75-15.22L135.75-15.22Q132.60-13.20 132.60-10.05L132.60-10.05L132.60-10.05Q132.60-8.40 133.50-7.27L133.50-7.27L133.50-7.27Q134.40-6.15 135.71-6.15L135.71-6.15L135.71-6.15Q137.03-6.15 137.89-6.67L137.89-6.67L137.89-6.67Q138.75-7.20 138.90-7.27L138.90-7.27L138.90-7.27Q140.17-7.13 140.17-4.61L140.17-4.61L140.17-4.61Q140.17-2.10 137.85-0.56L137.85-0.56L137.85-0.56Q135.53 0.97 132.97 0.97L132.97 0.97L132.97 0.97Q130.42 0.97 128.59 0.07L128.59 0.07L128.59 0.07Q126.75-0.82 125.92-1.95L125.92-1.95L125.92-1.95Q125.10-3.07 124.57-4.50L124.57-4.50L124.57-4.50Q124.05-6.22 124.05-7.50L124.05-7.50L124.05-7.50Q124.05-12.75 127.35-15.90L127.35-15.90L127.35-15.90Q130.65-19.05 135.82-20.40L135.82-20.40L135.82-20.40Q142.65-21.75 142.95-22.88L142.95-22.88L142.95-22.88Q143.17-23.70 143.17-25.65L143.17-25.65L143.17-25.65Q143.17-29.63 139.13-29.63L139.13-29.63L139.13-29.63Q137.40-29.63 136.05-28.54L136.05-28.54L136.05-28.54Q134.70-27.45 134.70-25.80L134.70-25.80L135.15-24L135.15-24Q135-22.72 132.45-22.50L132.45-22.50L131.63-22.43L131.63-22.43Q129.38-22.43 128.06-23.55L128.06-23.55L128.06-23.55Q126.75-24.68 126.75-26.55L126.75-26.55L126.75-26.55Q126.75-27.75 127.54-29.21L127.54-29.21L127.54-29.21Q128.32-30.67 129.53-31.57L129.53-31.57L129.53-31.57Q130.72-32.48 133.24-33.19L133.24-33.19L133.24-33.19Q135.75-33.90 138.07-33.90L138.07-33.90L138.07-33.90Q140.40-33.90 141.67-33.75L141.67-33.75L141.67-33.75Q142.95-33.60 145.16-33.04L145.16-33.04L145.16-33.04Q147.38-32.48 148.84-30.90L148.84-30.90L148.84-30.90Q150.30-29.32 150.41-27.56L150.41-27.56L150.41-27.56Q150.53-25.80 150.53-22.50" fill="#0a0a0a" stroke="none" stroke-width="none" transform="translate(-74.21499633789062,15.676521411895747)" style="fill: rgb(10, 10, 10);"></path></g></g>
</g>
</g>
<style id="beat-54367211-4373-4013-ae2b-d6f8f67eac4d" data-anikit="">@keyframes beat-54367211-4373-4013-ae2b-d6f8f67eac4d
{
  0% {
    animation-timing-function: cubic-bezier(0.1028,0.2484,0.1372,0.849);
    transform: scale(1);
  }
  34% {
    animation-timing-function: cubic-bezier(0.7116,0.2095,0.8159,0.6876);
    transform: scale(1.2);
  }
  68% {
    animation-timing-function: cubic-bezier(0.1475,0.2888,0.294,0.883);
    transform: scale(1.0268);
  }
  84% {
    animation-timing-function: cubic-bezier(0.8176,0.2193,0.867,0.6889);
    transform: scale(1.0932);
  }
  100% {
    transform: scale(1);
  }
}</style></svg>